<svg width="434" height="144" viewBox="0 0 434 144" fill="none" xmlns="http://www.w3.org/2000/svg">
<rect width="434" height="144" rx="12" fill="#515151" fill-opacity="0.75"/>
<g opacity="0.4">
<path d="M26.13 84.26C25.3767 84.26 24.65 84.1433 23.95 83.91C23.25 83.67 22.6367 83.33 22.11 82.89C21.59 82.45 21.22 81.9267 21 81.32L22.57 80.73C22.7033 81.1033 22.95 81.43 23.31 81.71C23.6767 81.9833 24.1067 82.1967 24.6 82.35C25.0933 82.5033 25.6033 82.58 26.13 82.58C26.73 82.58 27.2867 82.4833 27.8 82.29C28.32 82.09 28.74 81.8133 29.06 81.46C29.38 81.1067 29.54 80.6933 29.54 80.22C29.54 79.7333 29.3733 79.3367 29.04 79.03C28.7067 78.7167 28.28 78.47 27.76 78.29C27.24 78.1033 26.6967 77.96 26.13 77.86C25.1633 77.7 24.2967 77.4733 23.53 77.18C22.77 76.88 22.1667 76.4633 21.72 75.93C21.28 75.3967 21.06 74.6933 21.06 73.82C21.06 73.0067 21.2933 72.2967 21.76 71.69C22.2333 71.0833 22.8567 70.6133 23.63 70.28C24.4033 69.9467 25.2367 69.78 26.13 69.78C26.87 69.78 27.5867 69.8967 28.28 70.13C28.98 70.3567 29.5967 70.69 30.13 71.13C30.6633 71.57 31.0467 72.1067 31.28 72.74L29.69 73.32C29.5567 72.94 29.3067 72.6133 28.94 72.34C28.58 72.06 28.1533 71.8467 27.66 71.7C27.1733 71.5467 26.6633 71.47 26.13 71.47C25.5367 71.4633 24.9833 71.56 24.47 71.76C23.9567 71.96 23.54 72.2367 23.22 72.59C22.9 72.9433 22.74 73.3533 22.74 73.82C22.74 74.38 22.8867 74.81 23.18 75.11C23.48 75.4033 23.8867 75.6233 24.4 75.77C24.9133 75.9167 25.49 76.0467 26.13 76.16C27.0367 76.3133 27.8767 76.5567 28.65 76.89C29.4233 77.2167 30.0433 77.6533 30.51 78.2C30.9833 78.7467 31.22 79.42 31.22 80.22C31.22 81.0333 30.9833 81.7433 30.51 82.35C30.0433 82.9567 29.4233 83.4267 28.65 83.76C27.8767 84.0933 27.0367 84.26 26.13 84.26ZM38.5284 75.68H36.2584L36.2484 84H34.5684L34.5784 75.68H32.8584V74H34.5784L34.5684 70.86H36.2484L36.2584 74H38.5284V75.68ZM48.1072 74H49.7872V84H48.1072L48.0372 82.31C47.7239 82.89 47.2905 83.36 46.7372 83.72C46.1905 84.08 45.5372 84.26 44.7772 84.26C44.0439 84.26 43.3572 84.1233 42.7172 83.85C42.0772 83.57 41.5105 83.1867 41.0172 82.7C40.5305 82.2067 40.1505 81.64 39.8772 81C39.6039 80.36 39.4672 79.67 39.4672 78.93C39.4672 78.2167 39.6005 77.5433 39.8672 76.91C40.1339 76.2767 40.5039 75.7233 40.9772 75.25C41.4572 74.77 42.0105 74.3967 42.6372 74.13C43.2639 73.8567 43.9372 73.72 44.6572 73.72C45.4439 73.72 46.1339 73.9067 46.7272 74.28C47.3205 74.6467 47.8005 75.1233 48.1672 75.71L48.1072 74ZM44.7472 82.63C45.4072 82.63 45.9772 82.47 46.4572 82.15C46.9439 81.8233 47.3172 81.3833 47.5772 80.83C47.8439 80.2767 47.9772 79.6667 47.9772 79C47.9772 78.32 47.8439 77.7067 47.5772 77.16C47.3105 76.6067 46.9339 76.17 46.4472 75.85C45.9672 75.5233 45.4005 75.36 44.7472 75.36C44.0872 75.36 43.4872 75.5233 42.9472 75.85C42.4072 76.1767 41.9772 76.6167 41.6572 77.17C41.3439 77.7167 41.1872 78.3267 41.1872 79C41.1872 79.6733 41.3505 80.2867 41.6772 80.84C42.0039 81.3867 42.4372 81.8233 42.9772 82.15C43.5172 82.47 44.1072 82.63 44.7472 82.63ZM56.9659 75.68H54.6959L54.6859 84H53.0059L53.0159 75.68H51.2959V74H53.0159L53.0059 70.86H54.6859L54.6959 74H56.9659V75.68ZM58.3586 80.2V74H60.0386V79.83C60.0386 80.3367 60.1619 80.7967 60.4086 81.21C60.6553 81.6233 60.9853 81.9533 61.3986 82.2C61.8186 82.44 62.2786 82.56 62.7786 82.56C63.2853 82.56 63.7419 82.44 64.1486 82.2C64.5619 81.9533 64.8919 81.6233 65.1386 81.21C65.3853 80.7967 65.5086 80.3367 65.5086 79.83V74H67.1886L67.1986 84H65.5186L65.5086 82.73C65.1553 83.1967 64.7086 83.57 64.1686 83.85C63.6286 84.1233 63.0453 84.26 62.4186 84.26C61.6719 84.26 60.9886 84.08 60.3686 83.72C59.7553 83.3533 59.2653 82.8633 58.8986 82.25C58.5386 81.6367 58.3586 80.9533 58.3586 80.2ZM72.2578 84.19C71.7178 84.17 71.1911 84.07 70.6778 83.89C70.1711 83.7033 69.7245 83.4533 69.3378 83.14C68.9578 82.82 68.6811 82.4533 68.5078 82.04L69.9478 81.42C70.0478 81.6467 70.2278 81.86 70.4878 82.06C70.7478 82.26 71.0478 82.42 71.3878 82.54C71.7278 82.66 72.0711 82.72 72.4178 82.72C72.7845 82.72 73.1278 82.6633 73.4478 82.55C73.7678 82.4367 74.0278 82.27 74.2278 82.05C74.4345 81.8233 74.5378 81.5533 74.5378 81.24C74.5378 80.9067 74.4245 80.6467 74.1978 80.46C73.9778 80.2667 73.6978 80.1167 73.3578 80.01C73.0245 79.8967 72.6845 79.79 72.3378 79.69C71.6511 79.5167 71.0378 79.31 70.4978 79.07C69.9578 78.8233 69.5311 78.5133 69.2178 78.14C68.9111 77.76 68.7578 77.2767 68.7578 76.69C68.7578 76.07 68.9278 75.5333 69.2678 75.08C69.6145 74.6267 70.0678 74.2767 70.6278 74.03C71.1878 73.7833 71.7878 73.66 72.4278 73.66C73.2345 73.66 73.9711 73.8333 74.6378 74.18C75.3045 74.5267 75.8011 74.9967 76.1278 75.59L74.7778 76.38C74.6645 76.14 74.4911 75.93 74.2578 75.75C74.0245 75.5633 73.7578 75.4167 73.4578 75.31C73.1578 75.2033 72.8511 75.1467 72.5378 75.14C72.1511 75.1267 71.7878 75.1767 71.4478 75.29C71.1145 75.4033 70.8445 75.5767 70.6378 75.81C70.4378 76.0367 70.3378 76.32 70.3378 76.66C70.3378 76.9933 70.4445 77.2467 70.6578 77.42C70.8778 77.5933 71.1611 77.7333 71.5078 77.84C71.8611 77.94 72.2445 78.0567 72.6578 78.19C73.2645 78.3833 73.8311 78.6067 74.3578 78.86C74.8845 79.1133 75.3078 79.43 75.6278 79.81C75.9545 80.19 76.1145 80.66 76.1078 81.22C76.1078 81.8333 75.9245 82.37 75.5578 82.83C75.1911 83.2833 74.7145 83.63 74.1278 83.87C73.5478 84.11 72.9245 84.2167 72.2578 84.19ZM24.06 109.12C23.38 108.473 22.83 107.753 22.41 106.96C21.99 106.167 21.6833 105.317 21.49 104.41C21.2967 103.497 21.2 102.547 21.2 101.56C21.2 101.04 21.24 100.487 21.32 99.9C21.4 99.3067 21.52 98.7167 21.68 98.13C21.84 97.5367 22.0333 96.9733 22.26 96.44C22.4933 95.9067 22.76 95.43 23.06 95.01C23.36 94.5833 23.6933 94.2467 24.06 94H25.74C25.4133 94.2933 25.11 94.6533 24.83 95.08C24.55 95.5 24.2933 95.97 24.06 96.49C23.8267 97.0033 23.6233 97.5467 23.45 98.12C23.2767 98.6933 23.14 99.2733 23.04 99.86C22.9467 100.44 22.8933 101.007 22.88 101.56C22.9 102.607 23.0333 103.593 23.28 104.52C23.5333 105.447 23.87 106.297 24.29 107.07C24.7167 107.843 25.2 108.527 25.74 109.12H24.06ZM34.4383 108.26C33.4916 108.26 32.6016 108.073 31.7683 107.7C30.9349 107.32 30.2016 106.797 29.5683 106.13C28.9349 105.463 28.4383 104.693 28.0783 103.82C27.7183 102.94 27.5383 102 27.5383 101C27.5383 100 27.7183 99.0633 28.0783 98.19C28.4383 97.31 28.9349 96.5367 29.5683 95.87C30.2016 95.2033 30.9349 94.6833 31.7683 94.31C32.6016 93.93 33.4916 93.74 34.4383 93.74C35.3916 93.74 36.2849 93.93 37.1183 94.31C37.9516 94.6833 38.6849 95.2033 39.3183 95.87C39.9516 96.5367 40.4449 97.31 40.7983 98.19C41.1583 99.0633 41.3383 100 41.3383 101C41.3383 102 41.1583 102.94 40.7983 103.82C40.4449 104.693 39.9516 105.463 39.3183 106.13C38.6849 106.797 37.9516 107.32 37.1183 107.7C36.2849 108.073 35.3916 108.26 34.4383 108.26ZM34.4383 106.58C35.1649 106.58 35.8416 106.433 36.4683 106.14C37.1016 105.847 37.6549 105.443 38.1283 104.93C38.6083 104.41 38.9816 103.817 39.2483 103.15C39.5216 102.477 39.6583 101.76 39.6583 101C39.6583 100.24 39.5216 99.5233 39.2483 98.85C38.9749 98.17 38.5983 97.5767 38.1183 97.07C37.6449 96.5567 37.0916 96.1533 36.4583 95.86C35.8316 95.5667 35.1583 95.42 34.4383 95.42C33.7116 95.42 33.0316 95.5667 32.3983 95.86C31.7716 96.1533 31.2183 96.56 30.7383 97.08C30.2649 97.5933 29.8916 98.1867 29.6183 98.86C29.3516 99.5267 29.2183 100.24 29.2183 101C29.2183 101.767 29.3549 102.487 29.6283 103.16C29.9016 103.833 30.2749 104.427 30.7483 104.94C31.2283 105.453 31.7816 105.857 32.4083 106.15C33.0416 106.437 33.7183 106.58 34.4383 106.58ZM45.0089 113H43.3289V98H45.0089V99.71C45.3489 99.1233 45.8022 98.65 46.3689 98.29C46.9356 97.9233 47.6089 97.74 48.3889 97.74C49.1156 97.74 49.7956 97.8767 50.4289 98.15C51.0689 98.4233 51.6289 98.8033 52.1089 99.29C52.5889 99.77 52.9656 100.327 53.2389 100.96C53.5122 101.593 53.6489 102.273 53.6489 103C53.6489 103.727 53.5122 104.41 53.2389 105.05C52.9656 105.69 52.5889 106.253 52.1089 106.74C51.6289 107.22 51.0689 107.597 50.4289 107.87C49.7956 108.143 49.1156 108.28 48.3889 108.28C47.6089 108.28 46.9356 108.1 46.3689 107.74C45.8022 107.373 45.3489 106.897 45.0089 106.31V113ZM48.3689 99.37C47.7222 99.37 47.1556 99.5333 46.6689 99.86C46.1822 100.187 45.8056 100.623 45.5389 101.17C45.2789 101.717 45.1489 102.327 45.1489 103C45.1489 103.667 45.2789 104.277 45.5389 104.83C45.8056 105.383 46.1789 105.823 46.6589 106.15C47.1456 106.477 47.7156 106.64 48.3689 106.64C49.0156 106.64 49.6089 106.48 50.1489 106.16C50.6889 105.833 51.1222 105.397 51.4489 104.85C51.7756 104.297 51.9389 103.68 51.9389 103C51.9389 102.333 51.7789 101.727 51.4589 101.18C51.1389 100.627 50.7089 100.187 50.1689 99.86C49.6289 99.5333 49.0289 99.37 48.3689 99.37ZM59.6625 108.26C58.7425 108.26 57.9025 108.023 57.1425 107.55C56.3892 107.077 55.7858 106.443 55.3325 105.65C54.8858 104.85 54.6625 103.967 54.6625 103C54.6625 102.267 54.7925 101.583 55.0525 100.95C55.3125 100.31 55.6692 99.75 56.1225 99.27C56.5825 98.7833 57.1158 98.4033 57.7225 98.13C58.3292 97.8567 58.9758 97.72 59.6625 97.72C60.4158 97.72 61.1058 97.8733 61.7325 98.18C62.3658 98.48 62.9058 98.9 63.3525 99.44C63.8058 99.98 64.1425 100.607 64.3625 101.32C64.5892 102.033 64.6725 102.797 64.6125 103.61H56.4525C56.5325 104.177 56.7192 104.683 57.0125 105.13C57.3058 105.57 57.6792 105.92 58.1325 106.18C58.5925 106.44 59.1025 106.573 59.6625 106.58C60.2625 106.58 60.8058 106.427 61.2925 106.12C61.7792 105.807 62.1725 105.38 62.4725 104.84L64.1825 105.24C63.7825 106.127 63.1792 106.853 62.3725 107.42C61.5658 107.98 60.6625 108.26 59.6625 108.26ZM56.4025 102.29H62.9225C62.8692 101.73 62.6892 101.22 62.3825 100.76C62.0758 100.293 61.6858 99.92 61.2125 99.64C60.7392 99.36 60.2225 99.22 59.6625 99.22C59.1025 99.22 58.5892 99.3567 58.1225 99.63C57.6558 99.9033 57.2692 100.273 56.9625 100.74C56.6625 101.2 56.4758 101.717 56.4025 102.29ZM75.1377 101.78V108H73.4577V102.15C73.4577 101.643 73.3343 101.183 73.0877 100.77C72.841 100.357 72.511 100.03 72.0977 99.79C71.6843 99.5433 71.2243 99.42 70.7177 99.42C70.2177 99.42 69.7577 99.5433 69.3377 99.79C68.9243 100.03 68.5943 100.357 68.3477 100.77C68.101 101.183 67.9777 101.643 67.9777 102.15V108H66.2977V98H67.9777V99.25C68.331 98.7833 68.7777 98.4133 69.3177 98.14C69.8577 97.86 70.4443 97.72 71.0777 97.72C71.8243 97.72 72.5043 97.9033 73.1177 98.27C73.7377 98.63 74.2277 99.1167 74.5877 99.73C74.9543 100.343 75.1377 101.027 75.1377 101.78ZM82.4675 94L78.4175 109.12H76.7375L80.7875 94H82.4675ZM90.9417 108.26C89.9951 108.26 89.1051 108.073 88.2717 107.7C87.4384 107.32 86.7051 106.8 86.0717 106.14C85.4451 105.473 84.9517 104.7 84.5917 103.82C84.2384 102.94 84.0617 102 84.0617 101C84.0617 100 84.2384 99.06 84.5917 98.18C84.9517 97.3 85.4451 96.53 86.0717 95.87C86.7051 95.2033 87.4384 94.6833 88.2717 94.31C89.1051 93.93 89.9951 93.74 90.9417 93.74C92.0751 93.74 93.1184 94.0033 94.0717 94.53C95.0251 95.0567 95.8151 95.7567 96.4417 96.63L94.9517 97.43C94.4851 96.8167 93.8951 96.33 93.1817 95.97C92.4751 95.6033 91.7284 95.42 90.9417 95.42C90.2151 95.42 89.5351 95.5667 88.9017 95.86C88.2751 96.1533 87.7251 96.5567 87.2517 97.07C86.7784 97.5833 86.4084 98.1767 86.1417 98.85C85.8751 99.5233 85.7417 100.24 85.7417 101C85.7417 101.767 85.8751 102.487 86.1417 103.16C86.4151 103.833 86.7884 104.427 87.2617 104.94C87.7417 105.453 88.2951 105.857 88.9217 106.15C89.5551 106.437 90.2284 106.58 90.9417 106.58C91.7551 106.58 92.5084 106.397 93.2017 106.03C93.9017 105.657 94.4851 105.17 94.9517 104.57L96.4417 105.38C95.8151 106.253 95.0251 106.953 94.0717 107.48C93.1184 108 92.0751 108.26 90.9417 108.26ZM98.4656 108V93H100.146V108H98.4656ZM106.85 108.26C105.93 108.26 105.09 108.023 104.33 107.55C103.577 107.077 102.973 106.443 102.52 105.65C102.073 104.85 101.85 103.967 101.85 103C101.85 102.267 101.98 101.583 102.24 100.95C102.5 100.31 102.857 99.75 103.31 99.27C103.77 98.7833 104.303 98.4033 104.91 98.13C105.517 97.8567 106.163 97.72 106.85 97.72C107.77 97.72 108.607 97.9567 109.36 98.43C110.12 98.9033 110.723 99.54 111.17 100.34C111.623 101.14 111.85 102.027 111.85 103C111.85 103.727 111.72 104.407 111.46 105.04C111.2 105.673 110.84 106.233 110.38 106.72C109.927 107.2 109.397 107.577 108.79 107.85C108.19 108.123 107.543 108.26 106.85 108.26ZM106.85 106.58C107.477 106.58 108.04 106.417 108.54 106.09C109.047 105.757 109.443 105.32 109.73 104.78C110.023 104.233 110.17 103.64 110.17 103C110.17 102.347 110.02 101.747 109.72 101.2C109.427 100.653 109.03 100.217 108.53 99.89C108.03 99.5633 107.47 99.4 106.85 99.4C106.223 99.4 105.66 99.5667 105.16 99.9C104.66 100.227 104.263 100.663 103.97 101.21C103.677 101.757 103.53 102.353 103.53 103C103.53 103.667 103.68 104.273 103.98 104.82C104.28 105.36 104.683 105.79 105.19 106.11C105.697 106.423 106.25 106.58 106.85 106.58ZM116.594 108.19C116.054 108.17 115.527 108.07 115.014 107.89C114.507 107.703 114.06 107.453 113.674 107.14C113.294 106.82 113.017 106.453 112.844 106.04L114.284 105.42C114.384 105.647 114.564 105.86 114.824 106.06C115.084 106.26 115.384 106.42 115.724 106.54C116.064 106.66 116.407 106.72 116.754 106.72C117.12 106.72 117.464 106.663 117.784 106.55C118.104 106.437 118.364 106.27 118.564 106.05C118.77 105.823 118.874 105.553 118.874 105.24C118.874 104.907 118.76 104.647 118.534 104.46C118.314 104.267 118.034 104.117 117.694 104.01C117.36 103.897 117.02 103.79 116.674 103.69C115.987 103.517 115.374 103.31 114.834 103.07C114.294 102.823 113.867 102.513 113.554 102.14C113.247 101.76 113.094 101.277 113.094 100.69C113.094 100.07 113.264 99.5333 113.604 99.08C113.95 98.6267 114.404 98.2767 114.964 98.03C115.524 97.7833 116.124 97.66 116.764 97.66C117.57 97.66 118.307 97.8333 118.974 98.18C119.64 98.5267 120.137 98.9967 120.464 99.59L119.114 100.38C119 100.14 118.827 99.93 118.594 99.75C118.36 99.5633 118.094 99.4167 117.794 99.31C117.494 99.2033 117.187 99.1467 116.874 99.14C116.487 99.1267 116.124 99.1767 115.784 99.29C115.45 99.4033 115.18 99.5767 114.974 99.81C114.774 100.037 114.674 100.32 114.674 100.66C114.674 100.993 114.78 101.247 114.994 101.42C115.214 101.593 115.497 101.733 115.844 101.84C116.197 101.94 116.58 102.057 116.994 102.19C117.6 102.383 118.167 102.607 118.694 102.86C119.22 103.113 119.644 103.43 119.964 103.81C120.29 104.19 120.45 104.66 120.444 105.22C120.444 105.833 120.26 106.37 119.894 106.83C119.527 107.283 119.05 107.63 118.464 107.87C117.884 108.11 117.26 108.217 116.594 108.19ZM126.459 108.26C125.539 108.26 124.699 108.023 123.939 107.55C123.186 107.077 122.583 106.443 122.129 105.65C121.683 104.85 121.459 103.967 121.459 103C121.459 102.267 121.589 101.583 121.849 100.95C122.109 100.31 122.466 99.75 122.919 99.27C123.379 98.7833 123.913 98.4033 124.519 98.13C125.126 97.8567 125.773 97.72 126.459 97.72C127.213 97.72 127.903 97.8733 128.529 98.18C129.163 98.48 129.703 98.9 130.149 99.44C130.603 99.98 130.939 100.607 131.159 101.32C131.386 102.033 131.469 102.797 131.409 103.61H123.249C123.329 104.177 123.516 104.683 123.809 105.13C124.103 105.57 124.476 105.92 124.929 106.18C125.389 106.44 125.899 106.573 126.459 106.58C127.059 106.58 127.603 106.427 128.089 106.12C128.576 105.807 128.969 105.38 129.269 104.84L130.979 105.24C130.579 106.127 129.976 106.853 129.169 107.42C128.363 107.98 127.459 108.26 126.459 108.26ZM123.199 102.29H129.719C129.666 101.73 129.486 101.22 129.179 100.76C128.873 100.293 128.483 99.92 128.009 99.64C127.536 99.36 127.019 99.22 126.459 99.22C125.899 99.22 125.386 99.3567 124.919 99.63C124.453 99.9033 124.066 100.273 123.759 100.74C123.459 101.2 123.273 101.717 123.199 102.29ZM138.561 94L134.511 109.12H132.831L136.881 94H138.561ZM147.055 108.26C146.109 108.26 145.219 108.073 144.385 107.7C143.552 107.32 142.819 106.797 142.185 106.13C141.552 105.463 141.055 104.693 140.695 103.82C140.335 102.94 140.155 102 140.155 101C140.155 100 140.335 99.0633 140.695 98.19C141.055 97.31 141.552 96.5367 142.185 95.87C142.819 95.2033 143.552 94.6833 144.385 94.31C145.219 93.93 146.109 93.74 147.055 93.74C148.009 93.74 148.902 93.93 149.735 94.31C150.569 94.6833 151.302 95.2033 151.935 95.87C152.569 96.5367 153.062 97.31 153.415 98.19C153.775 99.0633 153.955 100 153.955 101C153.955 102 153.775 102.94 153.415 103.82C153.062 104.693 152.569 105.463 151.935 106.13C151.302 106.797 150.569 107.32 149.735 107.7C148.902 108.073 148.009 108.26 147.055 108.26ZM147.055 106.58C147.782 106.58 148.459 106.433 149.085 106.14C149.719 105.847 150.272 105.443 150.745 104.93C151.225 104.41 151.599 103.817 151.865 103.15C152.139 102.477 152.275 101.76 152.275 101C152.275 100.24 152.139 99.5233 151.865 98.85C151.592 98.17 151.215 97.5767 150.735 97.07C150.262 96.5567 149.709 96.1533 149.075 95.86C148.449 95.5667 147.775 95.42 147.055 95.42C146.329 95.42 145.649 95.5667 145.015 95.86C144.389 96.1533 143.835 96.56 143.355 97.08C142.882 97.5933 142.509 98.1867 142.235 98.86C141.969 99.5267 141.835 100.24 141.835 101C141.835 101.767 141.972 102.487 142.245 103.16C142.519 103.833 142.892 104.427 143.365 104.94C143.845 105.453 144.399 105.857 145.025 106.15C145.659 106.437 146.335 106.58 147.055 106.58ZM157.626 113H155.946V98H157.626V99.71C157.966 99.1233 158.419 98.65 158.986 98.29C159.553 97.9233 160.226 97.74 161.006 97.74C161.733 97.74 162.413 97.8767 163.046 98.15C163.686 98.4233 164.246 98.8033 164.726 99.29C165.206 99.77 165.583 100.327 165.856 100.96C166.129 101.593 166.266 102.273 166.266 103C166.266 103.727 166.129 104.41 165.856 105.05C165.583 105.69 165.206 106.253 164.726 106.74C164.246 107.22 163.686 107.597 163.046 107.87C162.413 108.143 161.733 108.28 161.006 108.28C160.226 108.28 159.553 108.1 158.986 107.74C158.419 107.373 157.966 106.897 157.626 106.31V113ZM160.986 99.37C160.339 99.37 159.773 99.5333 159.286 99.86C158.799 100.187 158.423 100.623 158.156 101.17C157.896 101.717 157.766 102.327 157.766 103C157.766 103.667 157.896 104.277 158.156 104.83C158.423 105.383 158.796 105.823 159.276 106.15C159.763 106.477 160.333 106.64 160.986 106.64C161.633 106.64 162.226 106.48 162.766 106.16C163.306 105.833 163.739 105.397 164.066 104.85C164.393 104.297 164.556 103.68 164.556 103C164.556 102.333 164.396 101.727 164.076 101.18C163.756 100.627 163.326 100.187 162.786 99.86C162.246 99.5333 161.646 99.37 160.986 99.37ZM172.28 108.26C171.36 108.26 170.52 108.023 169.76 107.55C169.006 107.077 168.403 106.443 167.95 105.65C167.503 104.85 167.28 103.967 167.28 103C167.28 102.267 167.41 101.583 167.67 100.95C167.93 100.31 168.286 99.75 168.74 99.27C169.2 98.7833 169.733 98.4033 170.34 98.13C170.946 97.8567 171.593 97.72 172.28 97.72C173.033 97.72 173.723 97.8733 174.35 98.18C174.983 98.48 175.523 98.9 175.97 99.44C176.423 99.98 176.76 100.607 176.98 101.32C177.206 102.033 177.29 102.797 177.23 103.61H169.07C169.15 104.177 169.336 104.683 169.63 105.13C169.923 105.57 170.296 105.92 170.75 106.18C171.21 106.44 171.72 106.573 172.28 106.58C172.88 106.58 173.423 106.427 173.91 106.12C174.396 105.807 174.79 105.38 175.09 104.84L176.8 105.24C176.4 106.127 175.796 106.853 174.99 107.42C174.183 107.98 173.28 108.26 172.28 108.26ZM169.02 102.29H175.54C175.486 101.73 175.306 101.22 175 100.76C174.693 100.293 174.303 99.92 173.83 99.64C173.356 99.36 172.84 99.22 172.28 99.22C171.72 99.22 171.206 99.3567 170.74 99.63C170.273 99.9033 169.886 100.273 169.58 100.74C169.28 101.2 169.093 101.717 169.02 102.29ZM187.755 101.78V108H186.075V102.15C186.075 101.643 185.952 101.183 185.705 100.77C185.458 100.357 185.128 100.03 184.715 99.79C184.302 99.5433 183.842 99.42 183.335 99.42C182.835 99.42 182.375 99.5433 181.955 99.79C181.542 100.03 181.212 100.357 180.965 100.77C180.718 101.183 180.595 101.643 180.595 102.15V108H178.915V98H180.595V99.25C180.948 98.7833 181.395 98.4133 181.935 98.14C182.475 97.86 183.062 97.72 183.695 97.72C184.442 97.72 185.122 97.9033 185.735 98.27C186.355 98.63 186.845 99.1167 187.205 99.73C187.572 100.343 187.755 101.027 187.755 101.78ZM189.755 98H191.435V108H189.755V98ZM190.615 96.37C190.348 96.37 190.125 96.2833 189.945 96.11C189.765 95.9367 189.675 95.72 189.675 95.46C189.675 95.2 189.765 94.9833 189.945 94.81C190.125 94.6367 190.345 94.55 190.605 94.55C190.865 94.55 191.085 94.6367 191.265 94.81C191.445 94.9833 191.535 95.2 191.535 95.46C191.535 95.72 191.445 95.9367 191.265 96.11C191.091 96.2833 190.875 96.37 190.615 96.37ZM202.618 101.78V108H200.938V102.15C200.938 101.643 200.815 101.183 200.568 100.77C200.321 100.357 199.991 100.03 199.578 99.79C199.165 99.5433 198.705 99.42 198.198 99.42C197.698 99.42 197.238 99.5433 196.818 99.79C196.405 100.03 196.075 100.357 195.828 100.77C195.581 101.183 195.458 101.643 195.458 102.15V108H193.778V98H195.458V99.25C195.811 98.7833 196.258 98.4133 196.798 98.14C197.338 97.86 197.925 97.72 198.558 97.72C199.305 97.72 199.985 97.9033 200.598 98.27C201.218 98.63 201.708 99.1167 202.068 99.73C202.435 100.343 202.618 101.027 202.618 101.78ZM212.233 98H213.913V108.32C213.913 108.98 213.769 109.593 213.483 110.16C213.203 110.733 212.823 111.23 212.343 111.65C211.863 112.077 211.316 112.407 210.703 112.64C210.089 112.88 209.449 113 208.783 113C208.089 113 207.419 112.843 206.773 112.53C206.126 112.223 205.559 111.81 205.073 111.29C204.593 110.777 204.246 110.2 204.033 109.56L205.573 108.86C205.699 109.32 205.926 109.733 206.253 110.1C206.586 110.473 206.973 110.767 207.413 110.98C207.859 111.2 208.316 111.31 208.783 111.31C209.223 111.31 209.646 111.233 210.053 111.08C210.466 110.927 210.836 110.713 211.163 110.44C211.496 110.173 211.756 109.857 211.943 109.49C212.136 109.13 212.233 108.74 212.233 108.32V106.33C211.893 106.903 211.443 107.37 210.883 107.73C210.329 108.083 209.683 108.26 208.943 108.26C208.236 108.26 207.573 108.123 206.953 107.85C206.333 107.577 205.789 107.2 205.323 106.72C204.856 106.233 204.489 105.673 204.223 105.04C203.956 104.407 203.823 103.727 203.823 103C203.823 102.273 203.956 101.593 204.223 100.96C204.489 100.32 204.856 99.76 205.323 99.28C205.789 98.7933 206.333 98.4133 206.953 98.14C207.573 97.8667 208.236 97.73 208.943 97.73C209.683 97.73 210.329 97.9067 210.883 98.26C211.443 98.6133 211.893 99.08 212.233 99.66V98ZM208.953 106.63C209.599 106.63 210.159 106.463 210.633 106.13C211.113 105.797 211.483 105.353 211.743 104.8C212.003 104.247 212.133 103.647 212.133 103C212.133 102.333 211.999 101.727 211.733 101.18C211.473 100.627 211.103 100.187 210.623 99.86C210.149 99.5267 209.593 99.36 208.953 99.36C208.326 99.36 207.753 99.5233 207.233 99.85C206.713 100.177 206.299 100.617 205.993 101.17C205.693 101.717 205.543 102.327 205.543 103C205.543 103.673 205.696 104.287 206.003 104.84C206.316 105.387 206.729 105.823 207.243 106.15C207.763 106.47 208.333 106.63 208.953 106.63ZM221.647 94L217.597 109.12H215.917L219.967 94H221.647ZM230.121 108.26C229.175 108.26 228.285 108.073 227.451 107.7C226.618 107.32 225.885 106.8 225.251 106.14C224.625 105.473 224.131 104.7 223.771 103.82C223.418 102.94 223.241 102 223.241 101C223.241 100 223.418 99.06 223.771 98.18C224.131 97.3 224.625 96.53 225.251 95.87C225.885 95.2033 226.618 94.6833 227.451 94.31C228.285 93.93 229.175 93.74 230.121 93.74C231.255 93.74 232.298 94.0033 233.251 94.53C234.205 95.0567 234.995 95.7567 235.621 96.63L234.131 97.43C233.665 96.8167 233.075 96.33 232.361 95.97C231.655 95.6033 230.908 95.42 230.121 95.42C229.395 95.42 228.715 95.5667 228.081 95.86C227.455 96.1533 226.905 96.5567 226.431 97.07C225.958 97.5833 225.588 98.1767 225.321 98.85C225.055 99.5233 224.921 100.24 224.921 101C224.921 101.767 225.055 102.487 225.321 103.16C225.595 103.833 225.968 104.427 226.441 104.94C226.921 105.453 227.475 105.857 228.101 106.15C228.735 106.437 229.408 106.58 230.121 106.58C230.935 106.58 231.688 106.397 232.381 106.03C233.081 105.657 233.665 105.17 234.131 104.57L235.621 105.38C234.995 106.253 234.205 106.953 233.251 107.48C232.298 108 231.255 108.26 230.121 108.26ZM237.645 108V93H239.325V108H237.645ZM246.03 108.26C245.11 108.26 244.27 108.023 243.51 107.55C242.756 107.077 242.153 106.443 241.7 105.65C241.253 104.85 241.03 103.967 241.03 103C241.03 102.267 241.16 101.583 241.42 100.95C241.68 100.31 242.036 99.75 242.49 99.27C242.95 98.7833 243.483 98.4033 244.09 98.13C244.696 97.8567 245.343 97.72 246.03 97.72C246.95 97.72 247.786 97.9567 248.54 98.43C249.3 98.9033 249.903 99.54 250.35 100.34C250.803 101.14 251.03 102.027 251.03 103C251.03 103.727 250.9 104.407 250.64 105.04C250.38 105.673 250.02 106.233 249.56 106.72C249.106 107.2 248.576 107.577 247.97 107.85C247.37 108.123 246.723 108.26 246.03 108.26ZM246.03 106.58C246.656 106.58 247.22 106.417 247.72 106.09C248.226 105.757 248.623 105.32 248.91 104.78C249.203 104.233 249.35 103.64 249.35 103C249.35 102.347 249.2 101.747 248.9 101.2C248.606 100.653 248.21 100.217 247.71 99.89C247.21 99.5633 246.65 99.4 246.03 99.4C245.403 99.4 244.84 99.5667 244.34 99.9C243.84 100.227 243.443 100.663 243.15 101.21C242.856 101.757 242.71 102.353 242.71 103C242.71 103.667 242.86 104.273 243.16 104.82C243.46 105.36 243.863 105.79 244.37 106.11C244.876 106.423 245.43 106.58 246.03 106.58ZM255.773 108.19C255.233 108.17 254.707 108.07 254.193 107.89C253.687 107.703 253.24 107.453 252.853 107.14C252.473 106.82 252.197 106.453 252.023 106.04L253.463 105.42C253.563 105.647 253.743 105.86 254.003 106.06C254.263 106.26 254.563 106.42 254.903 106.54C255.243 106.66 255.587 106.72 255.933 106.72C256.3 106.72 256.643 106.663 256.963 106.55C257.283 106.437 257.543 106.27 257.743 106.05C257.95 105.823 258.053 105.553 258.053 105.24C258.053 104.907 257.94 104.647 257.713 104.46C257.493 104.267 257.213 104.117 256.873 104.01C256.54 103.897 256.2 103.79 255.853 103.69C255.167 103.517 254.553 103.31 254.013 103.07C253.473 102.823 253.047 102.513 252.733 102.14C252.427 101.76 252.273 101.277 252.273 100.69C252.273 100.07 252.443 99.5333 252.783 99.08C253.13 98.6267 253.583 98.2767 254.143 98.03C254.703 97.7833 255.303 97.66 255.943 97.66C256.75 97.66 257.487 97.8333 258.153 98.18C258.82 98.5267 259.317 98.9967 259.643 99.59L258.293 100.38C258.18 100.14 258.007 99.93 257.773 99.75C257.54 99.5633 257.273 99.4167 256.973 99.31C256.673 99.2033 256.367 99.1467 256.053 99.14C255.667 99.1267 255.303 99.1767 254.963 99.29C254.63 99.4033 254.36 99.5767 254.153 99.81C253.953 100.037 253.853 100.32 253.853 100.66C253.853 100.993 253.96 101.247 254.173 101.42C254.393 101.593 254.677 101.733 255.023 101.84C255.377 101.94 255.76 102.057 256.173 102.19C256.78 102.383 257.347 102.607 257.873 102.86C258.4 103.113 258.823 103.43 259.143 103.81C259.47 104.19 259.63 104.66 259.623 105.22C259.623 105.833 259.44 106.37 259.073 106.83C258.707 107.283 258.23 107.63 257.643 107.87C257.063 108.11 256.44 108.217 255.773 108.19ZM261.2 98H262.88V108H261.2V98ZM262.06 96.37C261.793 96.37 261.57 96.2833 261.39 96.11C261.21 95.9367 261.12 95.72 261.12 95.46C261.12 95.2 261.21 94.9833 261.39 94.81C261.57 94.6367 261.79 94.55 262.05 94.55C262.31 94.55 262.53 94.6367 262.71 94.81C262.89 94.9833 262.98 95.2 262.98 95.46C262.98 95.72 262.89 95.9367 262.71 96.11C262.537 96.2833 262.32 96.37 262.06 96.37ZM274.063 101.78V108H272.383V102.15C272.383 101.643 272.26 101.183 272.013 100.77C271.767 100.357 271.437 100.03 271.023 99.79C270.61 99.5433 270.15 99.42 269.643 99.42C269.143 99.42 268.683 99.5433 268.263 99.79C267.85 100.03 267.52 100.357 267.273 100.77C267.027 101.183 266.903 101.643 266.903 102.15V108H265.223V98H266.903V99.25C267.257 98.7833 267.703 98.4133 268.243 98.14C268.783 97.86 269.37 97.72 270.003 97.72C270.75 97.72 271.43 97.9033 272.043 98.27C272.663 98.63 273.153 99.1167 273.513 99.73C273.88 100.343 274.063 101.027 274.063 101.78ZM283.678 98H285.358V108.32C285.358 108.98 285.215 109.593 284.928 110.16C284.648 110.733 284.268 111.23 283.788 111.65C283.308 112.077 282.761 112.407 282.148 112.64C281.535 112.88 280.895 113 280.228 113C279.535 113 278.865 112.843 278.218 112.53C277.571 112.223 277.005 111.81 276.518 111.29C276.038 110.777 275.691 110.2 275.478 109.56L277.018 108.86C277.145 109.32 277.371 109.733 277.698 110.1C278.031 110.473 278.418 110.767 278.858 110.98C279.305 111.2 279.761 111.31 280.228 111.31C280.668 111.31 281.091 111.233 281.498 111.08C281.911 110.927 282.281 110.713 282.608 110.44C282.941 110.173 283.201 109.857 283.388 109.49C283.581 109.13 283.678 108.74 283.678 108.32V106.33C283.338 106.903 282.888 107.37 282.328 107.73C281.775 108.083 281.128 108.26 280.388 108.26C279.681 108.26 279.018 108.123 278.398 107.85C277.778 107.577 277.235 107.2 276.768 106.72C276.301 106.233 275.935 105.673 275.668 105.04C275.401 104.407 275.268 103.727 275.268 103C275.268 102.273 275.401 101.593 275.668 100.96C275.935 100.32 276.301 99.76 276.768 99.28C277.235 98.7933 277.778 98.4133 278.398 98.14C279.018 97.8667 279.681 97.73 280.388 97.73C281.128 97.73 281.775 97.9067 282.328 98.26C282.888 98.6133 283.338 99.08 283.678 99.66V98ZM280.398 106.63C281.045 106.63 281.605 106.463 282.078 106.13C282.558 105.797 282.928 105.353 283.188 104.8C283.448 104.247 283.578 103.647 283.578 103C283.578 102.333 283.445 101.727 283.178 101.18C282.918 100.627 282.548 100.187 282.068 99.86C281.595 99.5267 281.038 99.36 280.398 99.36C279.771 99.36 279.198 99.5233 278.678 99.85C278.158 100.177 277.745 100.617 277.438 101.17C277.138 101.717 276.988 102.327 276.988 103C276.988 103.673 277.141 104.287 277.448 104.84C277.761 105.387 278.175 105.823 278.688 106.15C279.208 106.47 279.778 106.63 280.398 106.63ZM287.563 109.12C288.103 108.527 288.583 107.843 289.003 107.07C289.423 106.297 289.759 105.447 290.013 104.52C290.266 103.593 290.403 102.607 290.423 101.56C290.409 101.007 290.353 100.44 290.253 99.86C290.159 99.2733 290.026 98.6933 289.853 98.12C289.679 97.5467 289.476 97.0033 289.243 96.49C289.009 95.97 288.753 95.5 288.473 95.08C288.193 94.6533 287.889 94.2933 287.563 94H289.243C289.609 94.2467 289.939 94.5833 290.233 95.01C290.533 95.43 290.799 95.9067 291.033 96.44C291.266 96.9733 291.463 97.5367 291.623 98.13C291.783 98.7167 291.903 99.3067 291.983 99.9C292.063 100.487 292.103 101.04 292.103 101.56C292.103 102.547 292.006 103.497 291.813 104.41C291.619 105.317 291.313 106.167 290.893 106.96C290.473 107.753 289.923 108.473 289.243 109.12H287.563Z" fill="white"/>
</g>
<path d="M27.32 32V16.6H32.93C33.744 16.6 34.4773 16.7687 35.13 17.106C35.79 17.436 36.3107 17.9127 36.692 18.536C37.0807 19.152 37.275 19.8817 37.275 20.725C37.275 21.099 37.22 21.4767 37.11 21.858C37 22.2393 36.8313 22.584 36.604 22.892C36.3767 23.1927 36.0833 23.4163 35.724 23.563C36.2007 23.6803 36.5893 23.893 36.89 24.201C37.1907 24.509 37.4253 24.872 37.594 25.29C37.7627 25.7007 37.8763 26.1223 37.935 26.555C38.001 26.9803 38.034 27.3763 38.034 27.743C38.034 28.557 37.8323 29.283 37.429 29.921C37.0257 30.559 36.483 31.065 35.801 31.439C35.1263 31.813 34.3783 32 33.557 32H27.32ZM30.004 29.701H33.282C33.722 29.701 34.118 29.5947 34.47 29.382C34.822 29.1693 35.1043 28.876 35.317 28.502C35.5297 28.128 35.636 27.7027 35.636 27.226C35.636 26.8153 35.5297 26.4267 35.317 26.06C35.1043 25.6933 34.822 25.3963 34.47 25.169C34.118 24.9417 33.722 24.828 33.282 24.828H30.004V29.701ZM30.004 22.562H32.622C33.1647 22.562 33.6267 22.3933 34.008 22.056C34.3967 21.7187 34.591 21.2713 34.591 20.714C34.591 20.12 34.3967 19.6727 34.008 19.372C33.6267 19.064 33.1647 18.91 32.622 18.91H30.004V22.562ZM44.492 32.286C43.48 32.286 42.556 32.0257 41.72 31.505C40.8914 30.9843 40.2277 30.2877 39.729 29.415C39.2377 28.535 38.992 27.5633 38.992 26.5C38.992 25.6933 39.135 24.9417 39.421 24.245C39.707 23.541 40.0994 22.925 40.598 22.397C41.104 21.8617 41.6907 21.4437 42.358 21.143C43.0254 20.8423 43.7367 20.692 44.492 20.692C45.504 20.692 46.4244 20.9523 47.253 21.473C48.089 21.9937 48.7527 22.694 49.244 23.574C49.7427 24.454 49.992 25.4293 49.992 26.5C49.992 27.2993 49.849 28.0473 49.563 28.744C49.277 29.4407 48.881 30.0567 48.375 30.592C47.8764 31.12 47.2934 31.5343 46.626 31.835C45.966 32.1357 45.2547 32.286 44.492 32.286ZM44.492 29.602C45.0274 29.602 45.5077 29.459 45.933 29.173C46.3584 28.887 46.692 28.5093 46.934 28.04C47.1834 27.5707 47.308 27.0573 47.308 26.5C47.308 25.928 47.1797 25.4073 46.923 24.938C46.6737 24.4613 46.3327 24.0837 45.9 23.805C45.4747 23.519 45.0054 23.376 44.492 23.376C43.964 23.376 43.4874 23.519 43.062 23.805C42.6367 24.091 42.2994 24.4723 42.05 24.949C41.8007 25.4257 41.676 25.9427 41.676 26.5C41.676 27.0793 41.8044 27.6037 42.061 28.073C42.3177 28.5423 42.6587 28.9163 43.084 29.195C43.5167 29.4663 43.986 29.602 44.492 29.602ZM56.5877 32.286C55.5757 32.286 54.6517 32.0257 53.8157 31.505C52.9871 30.9843 52.3234 30.2877 51.8247 29.415C51.3334 28.535 51.0877 27.5633 51.0877 26.5C51.0877 25.6933 51.2307 24.9417 51.5167 24.245C51.8027 23.541 52.1951 22.925 52.6937 22.397C53.1997 21.8617 53.7864 21.4437 54.4537 21.143C55.1211 20.8423 55.8324 20.692 56.5877 20.692C57.5997 20.692 58.5201 20.9523 59.3487 21.473C60.1847 21.9937 60.8484 22.694 61.3397 23.574C61.8384 24.454 62.0877 25.4293 62.0877 26.5C62.0877 27.2993 61.9447 28.0473 61.6587 28.744C61.3727 29.4407 60.9767 30.0567 60.4707 30.592C59.9721 31.12 59.3891 31.5343 58.7217 31.835C58.0617 32.1357 57.3504 32.286 56.5877 32.286ZM56.5877 29.602C57.1231 29.602 57.6034 29.459 58.0287 29.173C58.4541 28.887 58.7877 28.5093 59.0297 28.04C59.2791 27.5707 59.4037 27.0573 59.4037 26.5C59.4037 25.928 59.2754 25.4073 59.0187 24.938C58.7694 24.4613 58.4284 24.0837 57.9957 23.805C57.5704 23.519 57.1011 23.376 56.5877 23.376C56.0597 23.376 55.5831 23.519 55.1577 23.805C54.7324 24.091 54.3951 24.4723 54.1457 24.949C53.8964 25.4257 53.7717 25.9427 53.7717 26.5C53.7717 27.0793 53.9001 27.6037 54.1567 28.073C54.4134 28.5423 54.7544 28.9163 55.1797 29.195C55.6124 29.4663 56.0817 29.602 56.5877 29.602ZM69.6965 23.684H67.5625V32H64.8785V23.684H63.2505V21H64.8785V17.546H67.5625V21H69.6965V23.684ZM76.9704 32V16.6H82.0744C83.1377 16.6 84.1314 16.8017 85.0554 17.205C85.9867 17.601 86.8044 18.1547 87.5084 18.866C88.2197 19.57 88.7734 20.3877 89.1694 21.319C89.5727 22.243 89.7744 23.2367 89.7744 24.3C89.7744 25.3633 89.5727 26.3607 89.1694 27.292C88.7734 28.216 88.2197 29.0337 87.5084 29.745C86.8044 30.449 85.9867 31.0027 85.0554 31.406C84.1314 31.802 83.1377 32 82.0744 32H76.9704ZM79.6544 29.316H82.0744C82.7564 29.316 83.3981 29.1877 83.9994 28.931C84.6081 28.667 85.1434 28.3077 85.6054 27.853C86.0674 27.391 86.4304 26.8593 86.6944 26.258C86.9584 25.6493 87.0904 24.9967 87.0904 24.3C87.0904 23.6033 86.9584 22.9543 86.6944 22.353C86.4304 21.7517 86.0674 21.22 85.6054 20.758C85.1434 20.296 84.6117 19.9367 84.0104 19.68C83.4091 19.416 82.7637 19.284 82.0744 19.284H79.6544V29.316ZM96.2479 32.286C95.2359 32.286 94.3119 32.0257 93.4759 31.505C92.6472 30.9843 91.9836 30.2877 91.4849 29.415C90.9936 28.535 90.7479 27.5633 90.7479 26.5C90.7479 25.6933 90.8909 24.9417 91.1769 24.245C91.4629 23.541 91.8552 22.925 92.3539 22.397C92.8599 21.8617 93.4466 21.4437 94.1139 21.143C94.7812 20.8423 95.4926 20.692 96.2479 20.692C97.2599 20.692 98.1802 20.9523 99.0089 21.473C99.8449 21.9937 100.509 22.694 101 23.574C101.499 24.454 101.748 25.4293 101.748 26.5C101.748 27.2993 101.605 28.0473 101.319 28.744C101.033 29.4407 100.637 30.0567 100.131 30.592C99.6322 31.12 99.0492 31.5343 98.3819 31.835C97.7219 32.1357 97.0106 32.286 96.2479 32.286ZM96.2479 29.602C96.7832 29.602 97.2636 29.459 97.6889 29.173C98.1142 28.887 98.4479 28.5093 98.6899 28.04C98.9392 27.5707 99.0639 27.0573 99.0639 26.5C99.0639 25.928 98.9356 25.4073 98.6789 24.938C98.4296 24.4613 98.0886 24.0837 97.6559 23.805C97.2306 23.519 96.7612 23.376 96.2479 23.376C95.7199 23.376 95.2432 23.519 94.8179 23.805C94.3926 24.091 94.0552 24.4723 93.8059 24.949C93.5566 25.4257 93.4319 25.9427 93.4319 26.5C93.4319 27.0793 93.5602 27.6037 93.8169 28.073C94.0736 28.5423 94.4146 28.9163 94.8399 29.195C95.2726 29.4663 95.7419 29.602 96.2479 29.602ZM108.344 32.286C107.332 32.286 106.408 32.0257 105.572 31.505C104.743 30.9843 104.079 30.2877 103.581 29.415C103.089 28.535 102.844 27.5633 102.844 26.5C102.844 25.6933 102.987 24.9417 103.273 24.245C103.559 23.541 103.951 22.925 104.45 22.397C104.956 21.8617 105.542 21.4437 106.21 21.143C106.877 20.8423 107.588 20.692 108.344 20.692C109.356 20.692 110.276 20.9523 111.105 21.473C111.941 21.9937 112.604 22.694 113.096 23.574C113.594 24.454 113.844 25.4293 113.844 26.5C113.844 27.2993 113.701 28.0473 113.415 28.744C113.129 29.4407 112.733 30.0567 112.227 30.592C111.728 31.12 111.145 31.5343 110.478 31.835C109.818 32.1357 109.106 32.286 108.344 32.286ZM108.344 29.602C108.879 29.602 109.359 29.459 109.785 29.173C110.21 28.887 110.544 28.5093 110.786 28.04C111.035 27.5707 111.16 27.0573 111.16 26.5C111.16 25.928 111.031 25.4073 110.775 24.938C110.525 24.4613 110.184 24.0837 109.752 23.805C109.326 23.519 108.857 23.376 108.344 23.376C107.816 23.376 107.339 23.519 106.914 23.805C106.488 24.091 106.151 24.4723 105.902 24.949C105.652 25.4257 105.528 25.9427 105.528 26.5C105.528 27.0793 105.656 27.6037 105.913 28.073C106.169 28.5423 106.51 28.9163 106.936 29.195C107.368 29.4663 107.838 29.602 108.344 29.602ZM115.567 32L115.556 21H118.24L118.251 21.979C118.625 21.583 119.073 21.2713 119.593 21.044C120.114 20.8093 120.675 20.692 121.276 20.692C121.68 20.692 122.083 20.7507 122.486 20.868L121.43 23.574C121.152 23.464 120.873 23.409 120.594 23.409C120.162 23.409 119.766 23.5153 119.406 23.728C119.054 23.9333 118.772 24.2157 118.559 24.575C118.354 24.927 118.251 25.3193 118.251 25.752V32H115.567Z" fill="white"/>
<path d="M342.1 96.26C341.154 96.26 340.264 96.0733 339.43 95.7C338.597 95.32 337.864 94.7967 337.23 94.13C336.597 93.4633 336.1 92.6933 335.74 91.82C335.38 90.94 335.2 90 335.2 89C335.2 88 335.38 87.0633 335.74 86.19C336.1 85.31 336.597 84.5367 337.23 83.87C337.864 83.2033 338.597 82.6833 339.43 82.31C340.264 81.93 341.154 81.74 342.1 81.74C343.054 81.74 343.947 81.93 344.78 82.31C345.614 82.6833 346.347 83.2033 346.98 83.87C347.614 84.5367 348.107 85.31 348.46 86.19C348.82 87.0633 349 88 349 89C349 90 348.82 90.94 348.46 91.82C348.107 92.6933 347.614 93.4633 346.98 94.13C346.347 94.7967 345.614 95.32 344.78 95.7C343.947 96.0733 343.054 96.26 342.1 96.26ZM342.1 94.58C342.827 94.58 343.504 94.4333 344.13 94.14C344.764 93.8467 345.317 93.4433 345.79 92.93C346.27 92.41 346.644 91.8167 346.91 91.15C347.184 90.4767 347.32 89.76 347.32 89C347.32 88.24 347.184 87.5233 346.91 86.85C346.637 86.17 346.26 85.5767 345.78 85.07C345.307 84.5567 344.754 84.1533 344.12 83.86C343.494 83.5667 342.82 83.42 342.1 83.42C341.374 83.42 340.694 83.5667 340.06 83.86C339.434 84.1533 338.88 84.56 338.4 85.08C337.927 85.5933 337.554 86.1867 337.28 86.86C337.014 87.5267 336.88 88.24 336.88 89C336.88 89.7667 337.017 90.4867 337.29 91.16C337.564 91.8333 337.937 92.4267 338.41 92.94C338.89 93.4533 339.444 93.8567 340.07 94.15C340.704 94.4367 341.38 94.58 342.1 94.58ZM352.671 101H350.991V86H352.671V87.71C353.011 87.1233 353.464 86.65 354.031 86.29C354.598 85.9233 355.271 85.74 356.051 85.74C356.778 85.74 357.458 85.8767 358.091 86.15C358.731 86.4233 359.291 86.8033 359.771 87.29C360.251 87.77 360.628 88.3267 360.901 88.96C361.174 89.5933 361.311 90.2733 361.311 91C361.311 91.7267 361.174 92.41 360.901 93.05C360.628 93.69 360.251 94.2533 359.771 94.74C359.291 95.22 358.731 95.5967 358.091 95.87C357.458 96.1433 356.778 96.28 356.051 96.28C355.271 96.28 354.598 96.1 354.031 95.74C353.464 95.3733 353.011 94.8967 352.671 94.31V101ZM356.031 87.37C355.384 87.37 354.818 87.5333 354.331 87.86C353.844 88.1867 353.468 88.6233 353.201 89.17C352.941 89.7167 352.811 90.3267 352.811 91C352.811 91.6667 352.941 92.2767 353.201 92.83C353.468 93.3833 353.841 93.8233 354.321 94.15C354.808 94.4767 355.378 94.64 356.031 94.64C356.678 94.64 357.271 94.48 357.811 94.16C358.351 93.8333 358.784 93.3967 359.111 92.85C359.438 92.2967 359.601 91.68 359.601 91C359.601 90.3333 359.441 89.7267 359.121 89.18C358.801 88.6267 358.371 88.1867 357.831 87.86C357.291 87.5333 356.691 87.37 356.031 87.37ZM367.325 96.26C366.405 96.26 365.565 96.0233 364.805 95.55C364.051 95.0767 363.448 94.4433 362.995 93.65C362.548 92.85 362.325 91.9667 362.325 91C362.325 90.2667 362.455 89.5833 362.715 88.95C362.975 88.31 363.331 87.75 363.785 87.27C364.245 86.7833 364.778 86.4033 365.385 86.13C365.991 85.8567 366.638 85.72 367.325 85.72C368.078 85.72 368.768 85.8733 369.395 86.18C370.028 86.48 370.568 86.9 371.015 87.44C371.468 87.98 371.805 88.6067 372.025 89.32C372.251 90.0333 372.335 90.7967 372.275 91.61H364.115C364.195 92.1767 364.381 92.6833 364.675 93.13C364.968 93.57 365.341 93.92 365.795 94.18C366.255 94.44 366.765 94.5733 367.325 94.58C367.925 94.58 368.468 94.4267 368.955 94.12C369.441 93.8067 369.835 93.38 370.135 92.84L371.845 93.24C371.445 94.1267 370.841 94.8533 370.035 95.42C369.228 95.98 368.325 96.26 367.325 96.26ZM364.065 90.29H370.585C370.531 89.73 370.351 89.22 370.045 88.76C369.738 88.2933 369.348 87.92 368.875 87.64C368.401 87.36 367.885 87.22 367.325 87.22C366.765 87.22 366.251 87.3567 365.785 87.63C365.318 87.9033 364.931 88.2733 364.625 88.74C364.325 89.2 364.138 89.7167 364.065 90.29ZM382.8 89.78V96H381.12V90.15C381.12 89.6433 380.996 89.1833 380.75 88.77C380.503 88.3567 380.173 88.03 379.76 87.79C379.346 87.5433 378.886 87.42 378.38 87.42C377.88 87.42 377.42 87.5433 377 87.79C376.586 88.03 376.256 88.3567 376.01 88.77C375.763 89.1833 375.64 89.6433 375.64 90.15V96H373.96V86H375.64V87.25C375.993 86.7833 376.44 86.4133 376.98 86.14C377.52 85.86 378.106 85.72 378.74 85.72C379.486 85.72 380.166 85.9033 380.78 86.27C381.4 86.63 381.89 87.1167 382.25 87.73C382.616 88.3433 382.8 89.0267 382.8 89.78Z" fill="white"/>
</svg>
